<?xml version="1.0" encoding="UTF-8"?>
<svg id="Layer_1" data-name="Layer 1" xmlns="http://www.w3.org/2000/svg" viewBox="0 0 19.35 19.35">
  <defs>
    <style>
      .cls-1 {
        fill: #f1b21d;
      }
    </style>
  </defs>
  <rect class="cls-1" width="19.35" height="19.35" rx="3.16" ry="3.16"/>
  <path d="M14.76,5.21c.65,0,1.17.52,1.17,1.17,0,.37-.17.72-.47.94l-5.32,3.99c-.28.21-.66.21-.94,0l-5.32-3.99c-.3-.22-.47-.57-.47-.94,0-.65.53-1.17,1.17-1.17h10.17ZM8.73,11.93c.56.42,1.32.42,1.88,0l5.32-3.99v5.09c0,.86-.7,1.56-1.56,1.56H4.98c-.86,0-1.56-.7-1.56-1.56v-5.09l5.32,3.99Z"/>
</svg>