<?xml version="1.0" encoding="UTF-8"?>
<svg id="Layer_1" data-name="Layer 1" xmlns="http://www.w3.org/2000/svg" viewBox="0 0 85.36 37.64">
  <defs>
    <style>
      .cls-1 {
        fill: #f1b21d;
      }
    </style>
  </defs>
  <g>
    <path class="cls-1" d="M28.94,10.59c-.08-.15-.63-.66-1.12-.66-.35,0-.67.27-1.22.85-.82.87-5.09,5.27-6.66,6.83h-.01c-2.02.08-7.56.52-7.5,1.76.03.67.85,1.12.87.84-.03-.31,1.82-1.46,5.87-1.9-2.21,1.96-6.81,6.8-10.06,6.8-.66,0-1.13-.26-1.13-.93,0-.2.14-.46.26-.56-.26,0-.61.39-.61,1.03,0,1.1.99,1.6,1.82,1.6,3.37,0,8.42-6.03,10.55-8.02.71-.08,1.4-.09,2.1-.09h.58c-.69,1.49-1.72,4.15-1.54,5.56.05.41.63.88,1.08.88s1.02-.28,1.57-.77c-.36.12-.85.36-1.31.36-.09,0-.2-.01-.21-.18-.11-1.01,1.21-4.44,1.85-5.78h.01c.96.07,1.89.22,2.41.31.22.04.36.06.4.06-.06-.05-.18-.11-.33-.17-.54-.19-1.57-.41-2.34-.52,1.2-2.92,3.08-5.9,3.95-6.83.24-.24.41-.41.73-.46ZM22.84,17.68c-.74-.07-1.47-.09-2.19-.09,4.86-5.13,5.15-5.44,5.32-5.59-.88,1.21-2.51,4.34-3.13,5.69Z"/>
    <path class="cls-1" d="M36.61,18.73c-.29.28-.69.66-1.13,1.06-1.05.96-2.35,2.07-3.05,2.23,0-.67,2.37-3.97,2.75-4.27.2-.17-.3-.98-.63-.98-.64,0-3.53,2.81-4.96,4.62,0-.53,1.37-2.72,2.14-3.54.15-.15-.35-.91-.65-.91-.04,0-.07,0-.09.01-.64.13-3.92,3.1-4.89,4.39.35-.59,1.68-2.58,2.34-3.33.2-.25.41-.4.52-.38.12.01.18.09.18.03,0-.38-.58-.98-.96-.98-.04,0-.13.01-.2.08-.17.13-.38.35-.59.61-.26.31-.53.65-.79,1.02-.03.04-.05.07-.07.11-.57.79-1.11,1.67-1.54,2.49-.4.7-.46,1.11-.43,1.22.12.42.52.9.98.79-.23-.1-.15-.41.27-.91.11-.14.28-.34.53-.62,1.11-1.25,2.52-2.68,4.06-3.6-1.02.93-2.19,3.11-2.19,3.69,0,.31.48.79.69.79.43,0,2.01-2.63,4.78-4.55-.79.74-2.45,3.27-2.45,4.13,0,.29.44.87.79.87.6,0,1.91-1.12,3.11-2.3.61-.6,1.18-1.2,1.62-1.68.04-.04-.03-.17-.14-.09Z"/>
    <path class="cls-1" d="M41.8,11.55c-.14,0-.34.1-.58.27-.71.6-1.31,1.33-1.85,2.04-1.35,1.79-2.95,4.11-3.89,5.93-.13.25-.25.48-.35.71-.02.04-.04.07-.05.11-.44,1.01-.47,1.46-.43,1.58.11.24.41.56.55.61.15.09.31.15.49.08-.69-.08-.06-.96.38-1.6,1.58-2.32,4.59-3.91,4.88-3.91-.14.76-2.9,4.81-4.43,4.81-.31,0-.58-.29-.58-.44,0-.04-.06-.01-.06.07,0,.5.67.9,1.26.9,2.1,0,5.05-3.7,5.05-5.06,0-.22-.53-.79-.71-.87-.82-.29-3.49,1.78-4.68,3.24,1.17-2.25,2.65-4.23,4.15-6.11.93-1.16,1.61-1.82,2.02-1.61.29.17-.3-.73-1.15-.73Z"/>
    <path class="cls-1" d="M49.99,18.73c-.12.12-.27.25-.43.39-1.06,1-2.81,2.6-3.64,2.84,0-.12.06-.31.15-.52.45-.98,1.82-2.63,1.9-2.48.06-.18-.45-1.02-.76-.87-.38.21-1.37,1.17-1.64,1.41-.79.67-2.92,2.2-3.42,2.37-.05.01-.08.01-.11,0-.14-.07,1.01-1.99,2.45-3.22.98-.83,2.09-1.47,2.98-1.52.46-.03.74.2.74.65,0,.23-.09.42-.16.55-.02.02.01.04.04.02.15-.2.28-.46.28-.71,0-.71-.76-.96-1.33-.96-2.8,0-6.28,3.39-6.28,5.05,0,.31.39.88.67,1.02.03.01.1.04.14.04.63,0,3.6-2.55,4.05-3.01-.29.39-.7,1.08-.88,1.65-.06.23-.12.41-.12.56,0,.27.28.59.5.71.11.06.18.09.26.09.82,0,2.88-2.03,4.25-3.49.17-.18.32-.34.46-.5.04-.04-.03-.17-.11-.09Z"/>
    <path class="cls-1" d="M55.34,18.33c-.1,0-.65.09-1.49.36-.81.25-1.89.67-3.08,1.35-.15-.14-.52-.38-.46-.64.2-.71,2.55-2.16,3.25-2.09-.03.3-1.05,1.36-1.09,1.36-.01,0,.01.07.03.07.41,0,1.37-.91,1.39-1.13.04-.44-.15-1.14-.58-1.14-1.34,0-3.53,1.14-3.77,2.3-.03.12-.01.25.02.36.02.07.05.13.08.19.23.41.71.73.82.88-.53.21-2.77,1.49-2.81,2.14.08.33.25.61.58.61.99,0,3-.8,3.21-1.79.04-.32-.34-.76-.53-.91.82-.5,1.98-.93,2.92-1.26.95-.33,1.68-.54,1.6-.56,0-.04-.06-.08-.09-.08ZM48.04,22.16c.44-.44,1.57-1.2,2.48-1.72,0,.58-1.88,1.55-2.48,1.72Z"/>
    <path class="cls-1" d="M59.64,18.33c-.08,0-.45.05-1.04.22-.83.23-2.11.68-3.54,1.49-.15-.14-.52-.38-.45-.64.2-.71,2.55-2.16,3.25-2.09-.03.3-1.05,1.36-1.09,1.36-.01,0,.01.07.03.07.41,0,1.37-.91,1.39-1.13.04-.44-.15-1.14-.58-1.14-1.31,0-3.43,1.09-3.75,2.22,0,.02-.01.05-.02.07-.01.07-.01.15,0,.21.07.57.79,1.03.94,1.22-.53.21-2.77,1.49-2.81,2.14.07.33.24.61.58.61.99,0,3-.8,3.21-1.79.04-.32-.34-.76-.53-.91.83-.5,2-.94,2.94-1.27.94-.33,1.66-.53,1.59-.55,0-.04-.06-.08-.09-.08ZM52.34,22.16c.44-.44,1.57-1.2,2.48-1.72,0,.58-1.89,1.55-2.48,1.72Z"/>
    <path class="cls-1" d="M65.69,18.73c-.29.28-.71.66-1.17,1.09,0,0-.01,0-.01.01-1.01.91-2.23,1.95-2.89,2.14,0-.12.06-.31.15-.52.46-.98,1.83-2.63,1.9-2.48.06-.18-.46-1.02-.76-.87-.38.21-1.37,1.17-1.64,1.41-.79.67-2.92,2.2-3.42,2.37-.05.01-.08.01-.11,0-.14-.07,1.01-1.99,2.45-3.22.98-.83,2.09-1.47,2.98-1.52.46-.03.74.2.74.65,0,.23-.09.42-.17.55-.01.02.02.04.05.02.15-.2.28-.46.28-.71,0-.71-.76-.96-1.33-.96-1.38,0-2.92.82-4.13,1.86-.17.14-.32.28-.47.42-1,.97-1.68,2.03-1.68,2.77,0,.31.39.88.67,1.02.03.01.1.04.13.04.64,0,3.6-2.55,4.06-3.01-.29.39-.7,1.08-.88,1.65-.06.23-.12.41-.12.56,0,.27.29.59.5.71.11.06.18.09.26.09.55,0,1.67-.92,2.76-1.97.72-.69,1.43-1.44,1.95-2.01.04-.04-.03-.17-.11-.09Z"/>
    <path class="cls-1" d="M74.75,11.52c-.13,0-.33.12-.56.3-.36.31-.79.79-1.26,1.39-.74,1.02-1.68,2.28-2.63,3.74-.14-.15-.38-.26-.67-.26-.91,0-1.95.49-3.11,1.26-.77.5-1.47,1.19-1.99,1.87,0,0-.01,0-.01.01-.28.35-.5.69-.66,1-.2.37-.31.7-.31.93,0,.35.49,1.04.76,1.04.79,0,3.92-2.92,4.46-3.34-.74,1.36-1.08,2.16-1.08,2.46,0,.34.34.66.58.79.15.07.32.12.5.06.5-.15,1.63-1.18,2.63-2.17.73-.73,1.39-1.44,1.69-1.78.04-.04-.03-.17-.12-.09-.23.21-.69.66-1.24,1.15-1.04.95-2.38,2.09-2.91,2.13.38-.96,1.6-2.97,2.94-4.97.74-1.11,1.36-2.01,2.03-2.84.63-.82,1.66-2.25,2.17-2.01.28.17-.34-.71-1.19-.66ZM69.17,18.76c-1.77,1.55-4.21,3.24-4.39,3.13-.12-.07.9-1.67,2.27-2.96.83-.82,1.84-1.6,2.47-1.76.22-.06.44-.06.64,0l-.99,1.6Z"/>
    <path class="cls-1" d="M79.15,18.23c-.18.07-.39.11-.62.13-.61.04-.97-.31-1.26-.78-.03-.04-.2-.17-.35-.15-.2.01-.65.47-.7.63-.06.15.09.61.17.74-1.01,1.55-3.19,3.98-4.04,3.63-.85-.36,2.33-5.48,5.08-5.48.11,0,.23.03.38.04.07,0,.11,0,.03-.04-.1-.09-.34-.26-.93-.26-1.82,0-4.17,1.43-5.21,3.19-.13.23-.24.47-.33.71-.12.34-.19.7-.19,1.05,0,.58.45,1.15,1.15,1.2,1.61.09,4.75-2.09,5.17-4.11.07.03.23.06.45.06.24,0,.56-.03.9-.14.74-.24,1.36-.74,1.43-.96-.13-.01-.5.34-1.13.54Z"/>
    <path class="cls-1" d="M85.23,18.51c-.94.84-1.99,1.52-2.72,1.58.5-1.18,1.76-2.3,2.1-2.65.11-.12-.52-.77-.69-.76-.32.03-.77.29-1.36.71-1.31.94-2.83,2.22-3.64,3.27.32-.56.85-1.28,1.26-1.82.46-.61.99-1.2,1.22-1.18.12.01.17.09.17.03,0-.38-.58-.98-.94-.98-.06,0-.12.02-.21.08-.31.25-.81.82-1.27,1.44-.1.14-.2.28-.3.42-.61.87-1.29,1.92-1.67,2.79-.18.35-.26.63-.23.77.1.42.47.9.91.79-.34-.15.58-1.49,1.35-2.33,1.04-1.14,1.75-1.74,3.15-2.57-.4.46-.88,1.34-.88,1.76,0,.18.45.71.73.71,1.05,0,2.87-1.71,3.14-2.07-.01-.03-.1-.01-.12,0Z"/>
  </g>
  <g>
    <path d="M31.34,27.07s-.03.05-.05.08c-.01.04-.03.06-.04.07-.01.01-.02.04-.04.06-.01.02-.03.04-.04.05s-.01.02-.02.04c-.01.01-.02.03-.03.03l-.03.02s-.02.01-.03.01c-.01,0-.02,0-.03,0h-.73v-.91h.77v-.23h-.77v-.87h.69c.05,0,.09.01.12.05.03.03.09.14.18.32h.1v-.61h-1.88v.1c.05,0,.09.02.12.04.03.01.05.04.07.07,0,.03.01.05.01.07,0,.02,0,.04,0,.08v1.75s0,.06,0,.08c0,.02,0,.04-.01.07-.01.03-.04.05-.07.07-.03.02-.07.04-.12.04v.1h1.88l.04-.61h-.1Z"/>
    <path d="M34.55,25.2v.1c.08.01.14.04.19.05.04.01.07.04.09.06.02.03.03.05.04.07,0,.02,0,.05,0,.09v1.07l-1.19-1.44h-.73v.1c.07.01.11.04.14.07.04.04.05.07.06.09v1.86c0,.05,0,.09,0,.11,0,.02-.02.05-.06.08-.03.02-.09.05-.16.07v.1h.79v-.1c-.08-.01-.14-.04-.19-.05-.04-.01-.08-.04-.09-.06-.02-.03-.03-.05-.04-.07,0-.02,0-.05,0-.09v-1.54l1.5,1.9h.22v-2.11c0-.05,0-.09,0-.11,0-.02.02-.05.06-.08.03-.03.09-.05.16-.07v-.1h-.79Z"/>
    <path d="M36.77,25.2v.61h.1s.02-.04.04-.07c.06-.12.1-.2.14-.25.03-.04.08-.06.13-.06h.3v1.88s0,.06,0,.08c0,.02,0,.04-.02.07,0,.03-.03.05-.06.07-.03.02-.07.04-.12.04v.1h.98v-.1c-.07-.01-.11-.04-.14-.07-.04-.04-.05-.07-.06-.09v-1.99h.29c.05,0,.09.01.12.05.03.03.09.14.18.32h.1v-.61h-1.99Z"/>
    <path d="M42.05,27.07s-.03.05-.05.08c-.02.04-.04.06-.04.07,0,.01-.01.04-.03.06-.01.02-.03.04-.04.05s-.01.02-.03.04c0,.01-.01.03-.02.03l-.03.02s-.02.01-.03.01c-.01,0-.02,0-.04,0h-.72v-.91h.77v-.23h-.77v-.87h.69c.05,0,.09.01.12.05.03.03.09.14.18.32h.1v-.61h-1.87v.1c.05,0,.09.02.12.04.03.01.05.04.06.07.01.03.02.05.02.07s0,.04,0,.08v1.75s0,.06,0,.08,0,.04-.02.07c0,.03-.03.05-.06.07-.03.02-.07.04-.12.04v.1h1.88l.04-.61h-.1Z"/>
    <path d="M45.76,27.52s-.06-.07-.08-.14l-.12-.44c-.07-.23-.22-.37-.47-.41v-.02c.2-.04.34-.11.44-.22.11-.11.16-.25.16-.41,0-.46-.28-.69-.85-.69h-1.18v.1s.08.02.11.04c.04.01.05.04.07.07,0,.03.01.05.02.07v1.91s-.01.04-.02.07c-.01.03-.03.05-.07.07-.03.02-.07.04-.11.04v.1h.98v-.1c-.06-.01-.11-.04-.14-.07-.03-.04-.05-.07-.05-.09,0-.03,0-.07,0-.11v-.71h.2c.13,0,.2.07.23.19l.23.88h.77v-.1s-.09-.03-.12-.05ZM44.69,26.37h-.24v-.94h.24c.16,0,.26.03.32.09.06.07.08.18.08.36s-.02.3-.08.37c-.06.07-.17.11-.32.11Z"/>
    <path d="M47.21,25.2v.61h.1s.02-.04.04-.07c.06-.12.1-.2.14-.25.03-.04.07-.06.13-.06h.29v1.96s0,.04-.02.07c0,.03-.03.05-.06.07-.03.02-.07.04-.12.04v.1h.98v-.1c-.06-.01-.1-.04-.14-.07-.03-.04-.04-.07-.05-.09,0-.03,0-.07,0-.11v-1.88h.29c.05,0,.09.01.13.05.03.03.09.14.18.32h.1v-.61h-1.98Z"/>
    <path d="M52.51,27.32l-.77-2.14h-.5l-.66,2.05c-.03.09-.07.16-.1.21-.04.04-.09.09-.18.13v.1h.73v-.1c-.12-.02-.2-.05-.23-.09-.03-.04-.03-.09,0-.17l.14-.44h.79l.15.44c.03.06.04.11.02.15-.02.05-.07.09-.15.1v.1h.97v-.1c-.09-.04-.16-.13-.2-.26ZM51,26.65l.31-.96.34.96h-.64Z"/>
    <path d="M54.87,25.45s.02-.05.05-.09c.04-.03.08-.05.14-.07v-.1h-.98v.1s.08.02.12.04c.03.01.05.04.06.07.01.03.02.05.02.07v1.91s0,.04-.02.07c0,.03-.03.05-.06.07-.04.02-.07.04-.12.04v.1h.98v-.1c-.06-.01-.1-.04-.14-.07-.03-.04-.04-.07-.05-.09,0-.03,0-.07,0-.11v-1.75s0-.08,0-.11Z"/>
    <path d="M58.18,25.2v.1c.08.01.15.04.19.05.05.01.08.04.1.06.01.03.03.05.03.07,0,.02,0,.05,0,.09v1.07l-1.18-1.44h-.73v.1c.06.01.11.04.14.07.03.04.05.07.05.09,0,.03,0,.07,0,.11v1.75c0,.05,0,.09,0,.11,0,.02-.03.05-.06.08-.04.02-.09.05-.16.07v.1h.79v-.1c-.08-.01-.15-.04-.19-.05-.05-.01-.08-.04-.1-.06-.01-.03-.03-.05-.03-.07,0-.02,0-.05,0-.09v-1.54l1.5,1.9h.21v-2.11c0-.05,0-.09,0-.11,0-.02.02-.05.06-.08.04-.03.09-.05.16-.07v-.1h-.79Z"/>
    <path d="M63.1,25.41s.03-.05.06-.07c.03-.02.07-.04.12-.04v-.1h-.86l-.52,1.27-.62-1.27h-.79v.1c.06.01.1.04.14.07.03.04.04.07.05.09,0,.03,0,.07,0,.11v1.75c0,.05,0,.09,0,.11,0,.02-.03.05-.06.08-.04.02-.09.05-.16.07v.1h.78v-.1c-.08-.01-.14-.04-.19-.05-.04-.01-.08-.04-.09-.06-.02-.03-.04-.05-.04-.07,0-.02,0-.05,0-.09v-1.45l.69,1.41h.22l.68-1.66v1.7s0,.08,0,.11c0,.02-.02.05-.05.09-.04.03-.08.05-.14.07v.1h.98v-.1s-.09-.02-.12-.04c-.03-.01-.05-.04-.06-.07-.01-.03-.02-.05-.02-.07v-1.91s0-.04.02-.07Z"/>
    <path d="M66.6,27.07s-.03.05-.05.08c-.01.04-.03.06-.04.07,0,.01-.02.04-.04.06-.01.02-.03.04-.04.05,0,0-.01.02-.02.04-.01.01-.02.03-.03.03l-.03.02s-.02.01-.03.01-.02,0-.03,0h-.73v-.91h.77v-.23h-.77v-.87h.69c.05,0,.09.01.13.05.02.03.09.14.18.32h.1v-.61h-1.87v.1s.08.02.11.04c.04.01.05.04.07.07,0,.03.01.05.02.07v1.91s-.01.04-.02.07c-.01.03-.03.05-.07.07-.03.02-.07.04-.11.04v.1h1.87l.04-.61h-.1Z"/>
    <path d="M69.81,25.2v.1c.08.01.15.04.19.05.04.01.08.04.09.06.02.03.04.05.04.07,0,.02,0,.05,0,.09v1.07l-1.18-1.44h-.73v.1c.06.01.1.04.14.07.03.04.04.07.05.09,0,.03,0,.07,0,.11v1.75c0,.05,0,.09,0,.11,0,.02-.03.05-.06.08-.04.02-.09.05-.16.07v.1h.79v-.1c-.08-.01-.15-.04-.19-.05-.05-.01-.08-.04-.1-.06-.02-.03-.03-.05-.04-.07v-1.63l1.49,1.9h.22v-2.11c0-.05,0-.09,0-.11,0-.02.02-.05.06-.08.04-.03.09-.05.16-.07v-.1h-.79Z"/>
    <path d="M72.03,25.2v.61h.1s.02-.04.04-.07c.06-.12.11-.2.14-.25.04-.04.08-.06.13-.06h.3v1.88s0,.06,0,.08c0,.02,0,.04-.01.07-.01.03-.04.05-.07.07-.03.02-.07.04-.12.04v.1h.98v-.1c-.06-.01-.11-.04-.14-.07-.03-.04-.05-.07-.05-.09,0-.03,0-.07,0-.11v-1.88h.29c.05,0,.09.01.12.05.03.03.09.14.18.32h.1v-.61h-1.99Z"/>
    <path d="M79.4,27.07c-.12.29-.34.44-.67.44-.26,0-.44-.09-.55-.25-.12-.17-.17-.44-.17-.82s.05-.66.17-.82c.11-.17.29-.25.55-.25.15,0,.28.04.38.1.11.07.19.18.26.34h.1v-.57c-.25-.05-.5-.07-.74-.07-.39,0-.71.11-.96.33-.24.22-.36.53-.36.95s.12.73.36.95c.24.22.56.33.96.33.24,0,.49-.03.74-.07l.04-.57h-.1Z"/>
    <path d="M83.07,25.49c-.23-.22-.53-.33-.89-.33s-.66.11-.88.33c-.23.22-.34.53-.34.95s.12.73.34.95c.22.22.52.33.88.33s.66-.11.89-.33c.23-.22.34-.53.34-.95s-.11-.73-.34-.95ZM82.66,27.25c-.09.17-.25.26-.48.26s-.39-.09-.48-.26c-.09-.17-.14-.44-.14-.82s.04-.65.14-.82c.09-.17.26-.26.48-.26s.39.09.48.26c.09.17.15.44.15.82s-.05.65-.15.82Z"/>
    <path d="M85.28,27.29c-.04-.05-.1-.07-.17-.07-.07,0-.13.02-.18.07-.05.05-.07.11-.07.18s.02.12.07.18c.04.04.1.07.18.07.07,0,.12-.03.17-.07.05-.05.07-.11.07-.18s-.02-.12-.07-.18Z"/>
  </g>
  <g>
    <path d="M.73,12.89c-.06-.01-.11-.03-.17-.03-.09,0-.18.02-.26.07-.13.07-.23.18-.28.33-.04.14-.03.29.04.42.07.13.18.23.33.28.14.04.29.03.42-.04.13-.07.23-.18.28-.33.09-.29-.07-.61-.36-.7ZM.98,13.56c-.04.11-.12.2-.22.26-.07.04-.13.05-.2.05-.04,0-.09,0-.13-.02-.23-.07-.36-.32-.28-.55.07-.23.32-.36.55-.28.23.07.36.31.29.55Z"/>
    <path d="M3.12,20.53c-.07-.15-.2-.26-.36-.31-.06-.02-.12-.03-.19-.03-.09,0-.19.02-.28.07-.15.08-.26.2-.31.36-.05.15-.03.32.04.47.07.15.2.26.36.31.16.04.33.04.47-.04.15-.07.25-.2.3-.36s.04-.32-.04-.47ZM3.04,20.95c-.04.12-.12.23-.24.28-.07.04-.15.06-.22.06-.05,0-.1,0-.15-.02-.12-.04-.22-.12-.28-.24-.06-.12-.07-.25-.03-.37.04-.12.12-.22.23-.28.12-.07.25-.07.37-.04.12.04.22.12.28.24.06.11.07.24.03.36Z"/>
    <path d="M25.57.89c-1.89-.6-3.81-.89-5.72-.89-3.83,0-7.59,1.17-10.83,3.46-.12-.04-.5-.12-.96,0-.5.14-1.18.56-1.6,1.79l-.04.11h.11c.07,0,1.55-.07,2.23-.82.24-.27.36-.59.34-.96C13.93.18,19.91-.74,25.53,1.04c5.01,1.59,8.89,5.11,11.06,9.49l.11-.12c-2.19-4.39-6.09-7.93-11.13-9.52ZM6.65,5.21s0-.02.01-.03v.03s-.01,0-.01,0ZM8.86,3.59c-.23.12-.69.44-1.14.75-.44.31-.86.62-1.03.74.65-1.63,1.78-1.57,2.17-1.49ZM8.66,4.45c-.5.55-1.49.71-1.93.75.12-.09.57-.42,1.04-.75.47-.33.96-.66,1.18-.77,0,.3-.11.55-.3.77ZM8.96,3.65l-.03-.05h0s.01,0,.02,0v.04Z"/>
    <path d="M12,3.26c-.09-.17-.23-.3-.42-.36-.07-.02-.15-.03-.21-.03-.31,0-.59.19-.69.5-.12.38.09.78.47.9.18.06.38.04.55-.05.18-.09.3-.24.36-.42s.04-.38-.05-.55ZM11.9,3.76c-.05.15-.15.26-.28.34-.08.04-.17.06-.26.06-.06,0-.12,0-.18-.02-.3-.09-.46-.42-.36-.71.09-.3.41-.47.71-.37.15.05.26.15.34.28.04.08.06.17.06.26,0,.06,0,.12-.02.18Z"/>
  </g>
  <path class="cls-1" d="M34.78,30.06c-4.75,6.31-13,8.94-20.54,6.55-4.75-1.5-8.63-4.77-10.92-9.2-1.03-1.98-1.68-4.09-1.95-6.24.06-1.14.28-2.09.57-2.85.28-.77.63-1.36.95-1.79.58-.79,1.14-1.2,1.3-1.3.2.15.43.19.67.15.82-.15,1.55-1.33,1.59-1.39l.07-.11h-.13c-.12-.02-.25-.02-.36-.02-.77,0-1.33.18-1.64.52-.26.28-.28.6-.27.72-.15.09-.74.5-1.34,1.33-.56.78-1.25,2.06-1.47,3.97,0-.01,0-.02,0-.03h0c-.58-5.91,6.07-9.87,6.7-10.23.58.5,1.21.69,1.88.56,2.08-.38,3.81-3.62,3.88-3.76l.05-.09-.11-.02c-.06-.01-.79-.15-1.71-.15-1.07,0-2.4.18-3.25.95-.62.56-.9,1.36-.82,2.38-.54.31-5.8,3.43-6.69,8.25.05-1.68.34-3.37.86-5.02,2.28-.3,3-2.9,3.22-4.7.12-.16,2.53-3.19,7.16-3.41.31.38.71.61,1.2.66,1.31.15,2.77-1,2.83-1.05l.09-.08-.11-.05c-.9-.47-1.68-.71-2.33-.71-.31,0-.6.06-.85.17-.58.26-.79.74-.85.9-4.1.2-6.48,2.57-7.11,3.28.09-.84.07-1.44.07-1.46v-.13l-.11.06c-1.97,1.06-3.18,2.32-3.59,3.76-.4,1.41.12,2.51.23,2.71-1.51,4.78-1.07,9.86,1.24,14.32,2.31,4.46,6.23,7.75,11.01,9.28,7.6,2.41,15.92-.25,20.72-6.61l-.13-.09ZM4.82,15.23c-.19.04-.36,0-.53-.1.69-.56,1.54-.9,1.87-1.01-.24.34-.79,1.01-1.35,1.12ZM4.49,14.48c.28-.31.82-.47,1.58-.47-.37.15-1.16.46-1.8.98,0-.13.05-.34.23-.52ZM9.83,10.55c-.5.09-.98,0-1.43-.29.72.12,1.76-.34,3.09-1.34.77-.58,1.45-1.21,1.85-1.6-.56.92-1.96,2.95-3.52,3.23ZM8.11,10.03c2.68-1.87,4.66-2.72,5.33-2.98-.79.79-3.89,3.7-5.33,2.98ZM8.09,9.9c.56-2.18,3.94-2.76,5.16-2.9-.79.32-2.68,1.17-5.16,2.9ZM8.83,7.74c1.14-1.02,3.24-.95,4.25-.84-.51.06-1.27.19-2.06.44-1.58.5-2.6,1.28-2.97,2.28.01-.79.28-1.41.78-1.87ZM13.68,5.62c-.34-.04-.63-.17-.88-.38.19.07.45.15.78.19.53.07,1.32.02,2.22-.43-.54.32-1.36.71-2.12.62ZM13.37,4.19c.52-.23,1.2-.2,2.04.09-.18-.04-.38-.07-.59-.09-.12-.01-.25-.01-.36-.01-.69,0-1.26.18-1.71.54.11-.18.31-.39.62-.53ZM16.1,4.61c-.68.02-2.22.09-3.4.33,1.13-1.09,3.04-.46,3.4-.33ZM16.04,4.73c-1.6.96-2.92.52-3.35.33,1.14-.24,2.63-.31,3.35-.33ZM2.43,13c1.44-1.02,2.46-4.33,2.81-5.66-.04,1.41-.4,5.01-2.81,5.66ZM2.13,13.05c1.07-3,2.55-5.25,3.06-5.97-.3,1.14-1.47,5.16-3.06,5.97ZM2.07,12.88c-.16-3.03,2.14-5.14,2.99-5.82-.54.78-1.95,2.94-2.99,5.82ZM1.72,11.52c0-.31.04-.65.14-1.01.34-1.19,1.25-2.26,2.71-3.19-.98.89-2.64,2.75-2.64,5.26,0,.07,0,.14,0,.21-.1-.28-.22-.72-.22-1.26Z"/>
</svg>