<?xml version="1.0" encoding="UTF-8"?>
<svg id="Layer_1" data-name="Layer 1" xmlns="http://www.w3.org/2000/svg" viewBox="0 0 18.59 18.59">
  <defs>
    <style>
      .cls-1 {
        fill: #f1b21d;
      }
    </style>
  </defs>
  <rect class="cls-1" width="18.59" height="18.59" rx="3.04" ry="3.04"/>
  <path d="M7.15,4.08l.94,2.25c.16.38.05.82-.27,1.09l-1.16.95c.78,1.65,2.12,2.99,3.77,3.77l.95-1.16c.26-.32.71-.43,1.09-.27l2.25.94c.44.18.67.66.55,1.11l-.57,2.07c-.11.41-.48.69-.91.69-5.81,0-10.52-4.71-10.52-10.52,0-.42.28-.79.69-.91l2.07-.56c.45-.12.93.11,1.11.54h0Z"/>
</svg>